<mxfile host="app.diagrams.net" modified="2024-04-27T12:12:54.865Z" agent="Mozilla/5.0 (Windows NT 10.0; Win64; x64; rv:125.0) Gecko/20100101 Firefox/125.0" version="24.3.0" etag="pPCYLaEuwPFrGXix8qmD" type="github">
  <diagram name="Page-1" id="NClc0_pydlBieFbidqAA">
    <mxGraphModel>
      <root>
        <mxCell id="0" />
        <mxCell id="1" parent="0" />
      </root>
    </mxGraphModel>
  </diagram>
</mxfile>
